#N canvas 563 53 717 680 10;
#X obj 603 271 r enable;
#X obj 593 383 line~ 0;
#X msg 591 354 1 100;
#X obj 183 563 *~;
#X obj 180 605 dac~;
#X obj 603 320 sel 1 0;
#X msg 652 356 0 200;
#X text 183 94 From Xcode;
#X text 600 252 From Xcode;
#X obj 603 296 tgl 15 0 empty empty empty 17 7 0 10 -262144 -1 -1 0
1;
#X text 630 295 On/Off;
#X text 6 6 LSU Center for Computation & Technology;
#X text 6 24 MAG - Mobile [ App | Art | Action ] Group;
#X text 30 43 Jesse Allison 2012;
#X obj 178 111 r pitch;
#X obj 180 388 + 20;
#X obj 178 169 + 1;
#X obj 180 351 * 400;
#X obj 431 186 r vibrato_speed;
#X obj 431 236 * 20;
#X obj 431 268 osc~ 0;
#X obj 505 209 r vibrato_depth;
#X obj 431 302 *~ 0.5;
#X obj 505 235 clip -1 1;
#X obj 431 211 clip -1 1;
#X obj 178 146 clip -1 1;
#X obj 180 424 sig~;
#X obj 180 472 +~;
#X obj 505 259 * 20;
#X obj 290 109 r random_note;
#X obj 269 147 random 1100;
#X obj 180 503 osc~ 440;
#X obj 429 122 r choosepitch;
#X obj 338 183 mtof;
#X text 28 60 Edited: Rob E. Reich;
#X obj 178 233 line;
#X msg 178 197 \$1 250;
#X obj 255 390 + 20;
#X obj 255 353 * 400;
#X obj 255 426 sig~;
#X obj 255 474 +~;
#X obj 255 505 osc~ 440;
#X obj 339 390 + 20;
#X obj 339 353 * 400;
#X obj 339 426 sig~;
#X obj 339 474 +~;
#X obj 339 505 osc~ 440;
#X obj 257 561 *~;
#X obj 245 614 dac~;
#X obj 335 554 *~;
#X obj 332 596 dac~;
#X obj 350 216 mtof;
#X obj 395 213 mtof;
#X obj 380 173 + 4;
#X obj 416 169 + 3;
#X connect 0 0 9 0;
#X connect 1 0 3 1;
#X connect 1 0 49 1;
#X connect 1 0 47 1;
#X connect 2 0 1 0;
#X connect 3 0 4 0;
#X connect 3 0 4 1;
#X connect 5 0 2 0;
#X connect 5 1 6 0;
#X connect 6 0 1 0;
#X connect 9 0 5 0;
#X connect 14 0 25 0;
#X connect 15 0 26 0;
#X connect 16 0 36 0;
#X connect 17 0 15 0;
#X connect 18 0 24 0;
#X connect 19 0 20 0;
#X connect 20 0 22 0;
#X connect 21 0 23 0;
#X connect 22 0 27 1;
#X connect 22 0 40 1;
#X connect 22 0 45 1;
#X connect 23 0 28 0;
#X connect 24 0 19 0;
#X connect 25 0 16 0;
#X connect 26 0 27 0;
#X connect 27 0 31 0;
#X connect 28 0 22 1;
#X connect 29 0 30 0;
#X connect 30 0 17 1;
#X connect 30 0 38 1;
#X connect 30 0 43 1;
#X connect 31 0 3 0;
#X connect 32 0 33 0;
#X connect 32 0 53 0;
#X connect 32 0 54 0;
#X connect 33 0 17 1;
#X connect 35 0 17 0;
#X connect 35 0 38 0;
#X connect 35 0 43 0;
#X connect 36 0 35 0;
#X connect 37 0 39 0;
#X connect 38 0 37 0;
#X connect 39 0 40 0;
#X connect 40 0 41 0;
#X connect 41 0 47 0;
#X connect 42 0 44 0;
#X connect 43 0 42 0;
#X connect 44 0 45 0;
#X connect 45 0 46 0;
#X connect 46 0 49 0;
#X connect 47 0 48 0;
#X connect 47 0 48 1;
#X connect 49 0 50 0;
#X connect 49 0 50 1;
#X connect 51 0 38 1;
#X connect 52 0 43 1;
#X connect 53 0 51 0;
#X connect 54 0 52 0;
